<svg xmlns="http://www.w3.org/2000/svg" xmlns:xlink="http://www.w3.org/1999/xlink" viewBox="0 0 258.41 258.54"><defs><style>.cls-1,.cls-10,.cls-12,.cls-3{fill:none;}.cls-2{isolation:isolate;}.cls-3{stroke:#38ffff;stroke-width:5px;}.cls-10,.cls-12,.cls-3{stroke-miterlimit:10;}.cls-4{clip-path:url(#clip-path);}.cls-5{fill:#d88d48;}.cls-6{fill:#9fc9c1;}.cls-7{fill:#79b2a7;}.cls-11,.cls-8{fill:#f1b69a;}.cls-9{fill:#150a08;}.cls-10{stroke:#e07e61;}.cls-10,.cls-12{stroke-linecap:round;}.cls-11{opacity:0.5;mix-blend-mode:multiply;}.cls-12{stroke:#150a08;}</style><clipPath id="clip-path" transform="translate(-577.35 -104.35)"><circle class="cls-1" cx="706.56" cy="233.55" r="126.7" transform="translate(41.8 568.02) rotate(-45)"/></clipPath></defs><g class="cls-2"><g id="Layer_1" data-name="Layer 1"><circle class="cls-3" cx="706.56" cy="233.55" r="126.7" transform="translate(-535.55 463.67) rotate(-45)"/><g class="cls-4"><path class="cls-5" d="M658.89,215.5c-26.26-33.56-4-69.45,16.22-80.76,29.63-16.58,79.37-11.52,85.85,1.13,5.63,11-4.15,20.84-4.15,20.84s14.88,3.95,14.33,17.37-17.37,20-17.37,20,17.32,10.64-14.33,31S664.52,222.7,658.89,215.5Z" transform="translate(-577.35 -104.35)"/><path class="cls-6" d="M816.93,362.89H596.19s6.69-37,21.86-58.34,71.48-29.1,71.48-29.1l17,2.63,17-2.63s56.33,7.78,71.5,29.1S816.93,362.89,816.93,362.89Z" transform="translate(-577.35 -104.35)"/><path class="cls-7" d="M761.08,282.62c-2.57,18.85-18.48,30.13-32.4,36.5a52.26,52.26,0,0,1-43.53,0c-13.92-6.37-29.83-17.66-32.4-36.5l9.83-1.83c2.21,16.25,16.56,25.64,28.34,30.68a40.67,40.67,0,0,0,32,0c11.78-5,26.13-14.42,28.34-30.68Z" transform="translate(-577.35 -104.35)"/><path class="cls-8" d="M751.25,280.79c-2.3,16.94-17.8,26.42-29.83,31.29a38.55,38.55,0,0,1-29,0c-12-4.87-27.51-14.35-29.82-31.29,17.18-5.67,40.9-8.11,41.31-8.14,2-.14,3-.15,3-.15s1.08,0,3,.15C710.35,272.68,734.07,275.12,751.25,280.79Z" transform="translate(-577.35 -104.35)"/><path class="cls-8" d="M706.19,294.26h0a15,15,0,0,1-15-15V250.74h29.9V279.3A15,15,0,0,1,706.19,294.26Z" transform="translate(-577.35 -104.35)"/><path class="cls-9" d="M721.14,247.43V265s-5,8.73-14.95,8.73c-8,0-15-7.57-15-7.57v-18.7Z" transform="translate(-577.35 -104.35)"/><path class="cls-8" d="M664.35,216.73c-8.08-12.28-17.46-4.39-17.46,4.26,0,12.52,13.58,23.31,21.34,14.32S664.35,216.73,664.35,216.73Z" transform="translate(-577.35 -104.35)"/><path class="cls-10" d="M662.58,222.41c-5-9.41-12-.63-9.33,2.85" transform="translate(-577.35 -104.35)"/><path class="cls-8" d="M745.13,216.73c8.08-12.28,17.46-4.39,17.46,4.26,0,12.52-13.58,23.31-21.34,14.32S745.13,216.73,745.13,216.73Z" transform="translate(-577.35 -104.35)"/><path class="cls-10" d="M746.89,222.41c5-9.41,12-.63,9.33,2.85" transform="translate(-577.35 -104.35)"/><path class="cls-8" d="M704.7,265c-32,0-50.84-34.93-43.37-70.77,6.15-29.54,80.67-29.53,86.82,0C755.62,230,736.67,265,704.7,265Z" transform="translate(-577.35 -104.35)"/><path class="cls-11" d="M700.46,229.08c3.29,1.57,10.69-1.91,10.85,0s-3.93,3.61-5.43,3.61S700.46,229.08,700.46,229.08Z" transform="translate(-577.35 -104.35)"/><path class="cls-10" d="M700.56,219.45c-4.66,10.08,2.31,12,4.18,12.28" transform="translate(-577.35 -104.35)"/><path class="cls-12" d="M693.58,237.21c12.34,2.37,22.12.39,26.07-2.77" transform="translate(-577.35 -104.35)"/><path class="cls-5" d="M692.1,192c-2-4.46-13.69-2.42-15.35.76s3.82,4.06,7.89,3.86S693.37,194.82,692.1,192Z" transform="translate(-577.35 -104.35)"/><path class="cls-5" d="M716.91,195.59c2-4.45,13.69-2.42,15.35.76s-3.82,4.06-7.89,3.86S715.64,198.43,716.91,195.59Z" transform="translate(-577.35 -104.35)"/><path class="cls-11" d="M701.86,243.29c4.47,0,10.89-2.32,11.88,0s-4.47,6.94-7.86,6.61S696.75,243.27,701.86,243.29Z" transform="translate(-577.35 -104.35)"/><path class="cls-9" d="M683.65,209.17a3.22,3.22,0,1,0,3.21-3.22A3.21,3.21,0,0,0,683.65,209.17Z" transform="translate(-577.35 -104.35)"/><path class="cls-9" d="M725.83,209.17a3.22,3.22,0,1,1-3.22-3.22A3.22,3.22,0,0,1,725.83,209.17Z" transform="translate(-577.35 -104.35)"/><path class="cls-5" d="M682.93,161.87c-.78,20.45,45.86,31.43,58.22,29.55s16.08-18-3.32-31.2S683.27,152.79,682.93,161.87Z" transform="translate(-577.35 -104.35)"/></g></g></g></svg>