<svg xmlns="http://www.w3.org/2000/svg" xmlns:xlink="http://www.w3.org/1999/xlink" viewBox="0 0 258.41 258.54"><defs><style>.cls-1,.cls-10,.cls-12,.cls-3{fill:none;}.cls-2{isolation:isolate;}.cls-3{stroke:#38ffff;stroke-width:5px;}.cls-10,.cls-12,.cls-3{stroke-miterlimit:10;}.cls-4{clip-path:url(#clip-path);}.cls-5{fill:#5b4852;}.cls-6{fill:#d88d48;}.cls-7{fill:#fff;}.cls-11,.cls-8{fill:#f1b69a;}.cls-9{fill:#150a08;}.cls-10{stroke:#e07e61;}.cls-10,.cls-12{stroke-linecap:round;}.cls-11{opacity:0.5;mix-blend-mode:multiply;}.cls-12{stroke:#150a08;}</style><clipPath id="clip-path" transform="translate(-583.39 -99.75)"><circle class="cls-1" cx="712.6" cy="228.95" r="126.7" transform="translate(46.82 570.94) rotate(-45)"/></clipPath></defs><g class="cls-2"><g id="Layer_1" data-name="Layer 1"><circle class="cls-3" cx="712.6" cy="228.95" r="126.7" transform="translate(-536.57 471.19) rotate(-45)"/><g class="cls-4"><path class="cls-5" d="M760.47,205.82c17.44-31.4,3.63-49.4-7.54-43.51,0,0-1.69-19.47-27.24-31.2-29.57-13.59-67.76-3-75.21,17.46-6.87,18.88,5.4,28,5.4,28s-7.59,13.56,5.4,33.86S752.66,219.88,760.47,205.82Z" transform="translate(-583.39 -99.75)"/><path class="cls-6" d="M823,358.29H602.23s6.69-37,21.86-58.33,71.48-29.1,71.48-29.1l17,2.63,17-2.63s56.33,7.77,71.5,29.1S823,358.29,823,358.29Z" transform="translate(-583.39 -99.75)"/><path class="cls-7" d="M695.57,270.86,673.77,275s5,24.66,25,37l13.53-16.58V277.56Z" transform="translate(-583.39 -99.75)"/><path class="cls-7" d="M728.11,270.86,749.92,275s-5,24.66-25,37l-13.54-16.58V277.56Z" transform="translate(-583.39 -99.75)"/><path class="cls-8" d="M712.23,289.66h0a15,15,0,0,1-15-15V246.14h29.9v28.57A15,15,0,0,1,712.23,289.66Z" transform="translate(-583.39 -99.75)"/><path class="cls-9" d="M727.18,242.84v17.54s-5,8.73-14.95,8.73c-8,0-15-7.57-15-7.57v-18.7Z" transform="translate(-583.39 -99.75)"/><path class="cls-8" d="M670.39,212.14c-8.08-12.29-17.46-4.39-17.46,4.25,0,12.52,13.58,23.31,21.34,14.32S670.39,212.14,670.39,212.14Z" transform="translate(-583.39 -99.75)"/><path class="cls-10" d="M668.62,217.81c-5-9.4-12-.63-9.33,2.86" transform="translate(-583.39 -99.75)"/><path class="cls-8" d="M751.17,212.14c8.08-12.29,17.46-4.39,17.46,4.25,0,12.52-13.58,23.31-21.34,14.32S751.17,212.14,751.17,212.14Z" transform="translate(-583.39 -99.75)"/><path class="cls-10" d="M752.93,217.81c5-9.4,12-.63,9.33,2.86" transform="translate(-583.39 -99.75)"/><path class="cls-8" d="M710.74,260.38c-32,0-50.84-34.93-43.37-70.78,6.15-29.54,80.67-29.53,86.82,0C761.66,225.45,742.71,260.39,710.74,260.38Z" transform="translate(-583.39 -99.75)"/><path class="cls-11" d="M706.5,224.49c3.29,1.57,10.69-1.91,10.85,0s-3.93,3.6-5.43,3.6S706.5,224.49,706.5,224.49Z" transform="translate(-583.39 -99.75)"/><path class="cls-10" d="M706.6,214.85c-4.66,10.08,2.31,12,4.18,12.28" transform="translate(-583.39 -99.75)"/><path class="cls-12" d="M699.63,232.61c12.33,2.37,22.11.4,26.06-2.76" transform="translate(-583.39 -99.75)"/><path class="cls-9" d="M698.14,187.39c-2-4.46-13.69-2.42-15.35.75s3.82,4.07,7.89,3.87S699.41,190.22,698.14,187.39Z" transform="translate(-583.39 -99.75)"/><path class="cls-9" d="M723.42,187.39c2-4.46,13.69-2.42,15.35.75s-3.82,4.07-7.89,3.87S722.14,190.22,723.42,187.39Z" transform="translate(-583.39 -99.75)"/><path class="cls-11" d="M707.9,238.69c4.47,0,10.89-2.31,11.88,0s-4.47,6.95-7.85,6.62S702.79,238.68,707.9,238.69Z" transform="translate(-583.39 -99.75)"/><path class="cls-9" d="M689.69,204.57a3.22,3.22,0,1,0,3.21-3.21A3.21,3.21,0,0,0,689.69,204.57Z" transform="translate(-583.39 -99.75)"/><path class="cls-9" d="M731.87,204.57a3.22,3.22,0,1,1-3.22-3.21A3.21,3.21,0,0,1,731.87,204.57Z" transform="translate(-583.39 -99.75)"/><path class="cls-5" d="M739.07,167.45c-8.28,18.57-26.41,8-26.41,8a41,41,0,0,1-30.17,9.36c-18.28-1.78-27.8-23.69-5.55-33S750.71,141.33,739.07,167.45Z" transform="translate(-583.39 -99.75)"/></g></g></g></svg>