<svg xmlns="http://www.w3.org/2000/svg" xmlns:xlink="http://www.w3.org/1999/xlink" viewBox="0 0 258.41 258.54"><defs><style>.cls-1,.cls-10,.cls-3{fill:none;}.cls-2{isolation:isolate;}.cls-3{stroke:#38ffff;stroke-width:5px;}.cls-10,.cls-3{stroke-miterlimit:10;}.cls-4{clip-path:url(#clip-path);}.cls-5{fill:#d76a40;}.cls-6{fill:#5b4850;}.cls-7{fill:#fff;}.cls-11,.cls-8{fill:#f1b69a;}.cls-9{fill:#150a08;}.cls-10{stroke:#e07e61;stroke-linecap:round;}.cls-11{opacity:0.5;mix-blend-mode:multiply;}</style><clipPath id="clip-path" transform="translate(-581.7 -89.03)"><circle class="cls-1" cx="710.91" cy="218.23" r="126.7" transform="translate(53.91 566.61) rotate(-45)"/></clipPath></defs><g class="cls-2"><g id="Layer_1" data-name="Layer 1"><circle class="cls-3" cx="710.91" cy="218.23" r="126.7" transform="translate(-527.8 477.58) rotate(-45)"/><g class="cls-4"><path class="cls-5" d="M761.15,195c1-14.12,11.77-53.42-11.42-50.75-3-20.46-22.17-30.81-40.64-29.87-50.1,2.56-57.85,48.33-50,80.62,12.72,33.86,78,7.39,102.06.06Z" transform="translate(-581.7 -89.03)"/><path class="cls-6" d="M821.28,347.57H600.54s6.69-37,21.86-58.33,71.48-29.1,71.48-29.1l17,2.62,17-2.62s56.33,7.77,71.5,29.1S821.28,347.57,821.28,347.57Z" transform="translate(-581.7 -89.03)"/><path class="cls-7" d="M680.8,261.73a99.86,99.86,0,0,1,29.82-2.25h0a99.86,99.86,0,0,1,29.82,2.25c1.43,13.42-4.12,30.34-29.54,30.42C685.17,292.23,679.35,275.32,680.8,261.73Z" transform="translate(-581.7 -89.03)"/><path class="cls-8" d="M710.54,278.94h0a15,15,0,0,1-14.95-15V235.42h29.9V264A15,15,0,0,1,710.54,278.94Z" transform="translate(-581.7 -89.03)"/><path class="cls-9" d="M725.49,233.75v17.53s-5,8.73-15,8.73c-8,0-14.95-7.57-14.95-7.57V233.75Z" transform="translate(-581.7 -89.03)"/><path class="cls-8" d="M668.7,201.41c-8.08-12.28-17.46-4.39-17.46,4.26,0,12.52,13.58,23.31,21.35,14.32S668.7,201.41,668.7,201.41Z" transform="translate(-581.7 -89.03)"/><path class="cls-10" d="M666.94,207.09c-5-9.41-12-.63-9.33,2.85" transform="translate(-581.7 -89.03)"/><path class="cls-8" d="M749.48,201.41c8.08-12.28,17.46-4.39,17.46,4.26,0,12.52-13.58,23.31-21.34,14.32S749.48,201.41,749.48,201.41Z" transform="translate(-581.7 -89.03)"/><path class="cls-10" d="M751.25,207.09c5-9.41,12-.63,9.33,2.85" transform="translate(-581.7 -89.03)"/><path class="cls-8" d="M709.05,249.65c-31.95,0-50.84-34.92-43.37-70.77,6.15-29.54,80.67-29.53,86.82,0C760,214.73,741,249.66,709.05,249.65Z" transform="translate(-581.7 -89.03)"/><path class="cls-5" d="M756.2,190.63s-.41,32.18-12.42,47.22-33.24,16-33.24,16-23.81-1-35.8-16-12.42-47.22-12.42-47.22l1.66-3.24c1.22,8.63,6.86,31,13.65,35.92,11.11-3.72,19.42-4.14,32.1-4.14,13.57,0,22.21,1.46,31.64,2.65,5.46-4.81,12.07-26.57,13.17-34.43Z" transform="translate(-581.7 -89.03)"/><path class="cls-11" d="M704.81,213.76c3.29,1.57,10.7-1.91,10.85,0s-3.93,3.61-5.43,3.61S704.81,213.76,704.81,213.76Z" transform="translate(-581.7 -89.03)"/><path class="cls-10" d="M704.91,204.13c-4.66,10.08,2.31,12,4.18,12.28" transform="translate(-581.7 -89.03)"/><path class="cls-7" d="M697.47,223.31c12.23,1.31,20.41,0,26.21.16,0,0-7.33,10.35-15.94,8.29S697.47,223.31,697.47,223.31Z" transform="translate(-581.7 -89.03)"/><path class="cls-5" d="M696.46,176.66c-2-4.46-13.7-2.42-15.35.76s3.82,4.06,7.88,3.86S697.73,179.5,696.46,176.66Z" transform="translate(-581.7 -89.03)"/><path class="cls-5" d="M721.73,176.66c2-4.46,13.69-2.42,15.35.76s-3.82,4.06-7.89,3.86S720.46,179.5,721.73,176.66Z" transform="translate(-581.7 -89.03)"/><path class="cls-11" d="M705.92,234.77c4.48,0,10.89-2.31,11.88,0s-4.47,6.95-7.85,6.62S700.81,234.76,705.92,234.77Z" transform="translate(-581.7 -89.03)"/><path class="cls-9" d="M688,193.85a3.22,3.22,0,1,0,3.22-3.22A3.22,3.22,0,0,0,688,193.85Z" transform="translate(-581.7 -89.03)"/><circle class="cls-9" cx="145.26" cy="104.82" r="3.21"/><path class="cls-5" d="M684.61,157.29l7.45-1.81S682.36,171,703,174s42.17-11,25-18.13l6.24-.42-15-11.5Z" transform="translate(-581.7 -89.03)"/></g></g></g></svg>