<svg xmlns="http://www.w3.org/2000/svg" xmlns:xlink="http://www.w3.org/1999/xlink" viewBox="0 0 258.41 258.41"><defs><style>.cls-1,.cls-3,.cls-9{fill:none;}.cls-2{isolation:isolate;}.cls-3{stroke:#38ffff;stroke-width:5px;}.cls-3,.cls-9{stroke-miterlimit:10;}.cls-4{clip-path:url(#clip-path);}.cls-5{fill:#d76a40;}.cls-6{fill:#5b4850;}.cls-10,.cls-7{fill:#f1b69a;}.cls-8{fill:#150a08;}.cls-9{stroke:#e07e61;stroke-linecap:round;}.cls-10{opacity:0.5;mix-blend-mode:multiply;}.cls-11{fill:#fff;}</style><clipPath id="clip-path" transform="translate(-550.91 -77.09)"><circle class="cls-1" cx="680.11" cy="206.3" r="126.7" transform="translate(53.33 541.34) rotate(-45)"/></clipPath></defs><g class="cls-2"><g id="Layer_1" data-name="Layer 1"><circle class="cls-3" cx="680.11" cy="206.3" r="126.7" transform="translate(-497.58 464.24) rotate(-45)"/><g class="cls-4"><path class="cls-5" d="M637.52,134.19c.8-1.89-10.31,1.62-11.26,2.06-5.5,2.61-9.74,6.48-12.11,12.19-2.29,5.52-2.7,11.65-2.56,17.63.42,18.4,14.32,41.6,1.15,58-6.81,8.47-18.73,10.57-27.73,16.66-17.13,11.6-20.6,37.42-10.67,55.57s30.21,28.88,50.68,31.92,41.32-.6,61.51-5.17c14-3.17,28.37-7,39.79-15.73,26.91-20.59,14.37-46.38,2-70.5-7.91-15.45,6.29-22.73,12.49-41.91,11.15-34.52-4.83-68-35.34-81.25C655.49,92,637.62,134,637.52,134.19Z" transform="translate(-550.91 -77.09)"/><path class="cls-6" d="M778.8,333H581.43s9.21-35.53,22.3-56.57,61.16-28.23,61.16-28.23l15.22,2.55,15.23-2.55s48.08,7.17,61.17,28.23S778.8,333,778.8,333Z" transform="translate(-550.91 -77.09)"/><path class="cls-7" d="M636.14,255.23c23.12,33,66.83,28.82,88,0C724.1,255.23,681.72,235.5,636.14,255.23Z" transform="translate(-550.91 -77.09)"/><path class="cls-7" d="M679.75,267h0a15,15,0,0,1-15-14.95V223.49H694.7v28.56A15,15,0,0,1,679.75,267Z" transform="translate(-550.91 -77.09)"/><path class="cls-8" d="M694.7,220.18v17.54s-5,8.73-15,8.73c-8,0-15-7.57-15-7.57v-18.7Z" transform="translate(-550.91 -77.09)"/><path class="cls-7" d="M637.91,189.48c-8.08-12.28-17.46-4.39-17.46,4.26,0,12.52,13.58,23.3,21.34,14.32S637.91,189.48,637.91,189.48Z" transform="translate(-550.91 -77.09)"/><path class="cls-9" d="M636.14,195.16c-5-9.41-12-.63-9.33,2.85" transform="translate(-550.91 -77.09)"/><path class="cls-7" d="M718.68,189.48c8.09-12.28,17.47-4.39,17.47,4.26,0,12.52-13.58,23.3-21.35,14.32S718.68,189.48,718.68,189.48Z" transform="translate(-550.91 -77.09)"/><path class="cls-9" d="M720.45,195.16c5-9.41,12-.63,9.33,2.85" transform="translate(-550.91 -77.09)"/><path class="cls-7" d="M678.26,237.72c-32,0-50.85-34.93-43.38-70.78,6.16-29.54,80.67-29.53,86.83,0C729.18,202.79,710.23,237.73,678.26,237.72Z" transform="translate(-550.91 -77.09)"/><path class="cls-10" d="M674,201.83c3.28,1.57,10.69-1.91,10.85,0s-3.94,3.6-5.43,3.6S674,201.83,674,201.83Z" transform="translate(-550.91 -77.09)"/><path class="cls-9" d="M674.12,192.2c-4.66,10.08,2.31,12,4.18,12.28" transform="translate(-550.91 -77.09)"/><path class="cls-5" d="M665.66,164.73c-2-4.46-13.7-2.42-15.35.75s3.82,4.07,7.88,3.87S666.93,167.57,665.66,164.73Z" transform="translate(-550.91 -77.09)"/><path class="cls-8" d="M690.93,164.73c2-4.46,13.7-2.42,15.35.75s-3.82,4.07-7.88,3.87S689.66,167.57,690.93,164.73Z" transform="translate(-550.91 -77.09)"/><path class="cls-8" d="M657.21,181.91a3.22,3.22,0,1,0,3.21-3.21A3.22,3.22,0,0,0,657.21,181.91Z" transform="translate(-550.91 -77.09)"/><path class="cls-8" d="M699.39,181.91a3.22,3.22,0,1,1-3.22-3.21A3.22,3.22,0,0,1,699.39,181.91Z" transform="translate(-550.91 -77.09)"/><path class="cls-11" d="M666.34,209.79c12.23,1.31,20.4,0,26.21.17,0,0-7.33,10.34-15.94,8.29S666.34,209.79,666.34,209.79Z" transform="translate(-550.91 -77.09)"/><path class="cls-10" d="M674.79,221.25c4.48,0,10.89-2.31,11.88,0s-4.47,6.95-7.85,6.62S669.68,221.24,674.79,221.25Z" transform="translate(-550.91 -77.09)"/><path class="cls-5" d="M657.21,135.44c-.06,30.1,57.11,44.56,68.2,37.44s2.44-32.65-26.76-39.57S657.23,126.48,657.21,135.44Z" transform="translate(-550.91 -77.09)"/><path class="cls-5" d="M657.33,135.23c7.29,14.54-12.73,46.64-24.11,44.51s-11.37-14.7-2.5-29.61S653.87,128.33,657.33,135.23Z" transform="translate(-550.91 -77.09)"/></g></g></g></svg>