<svg id="Layer_1" data-name="Layer 1" xmlns="http://www.w3.org/2000/svg" viewBox="0 0 575.15 575.15"><defs><style>.cls-1{fill:#38ffff;}.cls-2{fill:none;stroke:#38ffff;stroke-miterlimit:10;stroke-width:16px;}</style></defs><path class="cls-1" d="M590,359c-4-.36-7.74-.35-11.39-1.09-15.61-3.13-27.5-15.72-28.37-31.64a379.85,379.85,0,0,1,.09-44.51c1.1-17.57,16.77-31.33,34.42-31.7,1.73,0,3.45,0,5.23,0a22,22,0,0,1,7.18-12.79,21,21,0,0,1,14.07-5.17c12.15,0,24.3.06,36.45-.07a9.66,9.66,0,0,0,5-1.52q51.32-34,102.54-68.25c15.52-10.31,35.88-2.39,40,15.52a33.21,33.21,0,0,1,.73,7.45q.06,119.19,0,238.38c0,10.73-4.19,19.2-13.77,24.31s-18.89,4-27.85-1.95q-50.73-33.9-101.56-67.64a10.32,10.32,0,0,0-5.29-1.61c-11.38-.14-22.76-.07-34.14-.07C600.61,376.65,593.45,371.27,590,359ZM773.6,304.36V185.76c0-2,.24-4.12-2-5.33s-3.86.31-5.5,1.41q-49.46,32.94-98.91,65.87a4.66,4.66,0,0,0-2.34,4.45q.11,52.22,0,104.43a4.65,4.65,0,0,0,2.35,4.44q41.67,27.68,83.26,55.46c5.69,3.8,11.36,7.64,17.1,11.36,3.07,2,5.81.47,6-3.15,0-.77,0-1.54,0-2.32ZM642.45,354.14V254.72H612.34v99.42Zm-52.77-81.43c-10.24-1.19-17.4,4.22-17.49,13.17q-.18,18.51,0,37c.1,9.1,8.49,15.23,17.49,12.93Z" transform="translate(-472.51 -16.77)"/><path class="cls-1" d="M946.47,307c-.71,45.19-17.24,86.45-50.57,120.82-4.66,4.8-10.86,5.25-15.16,1.22s-4.32-10.49.07-14.95a162.35,162.35,0,0,0,21.72-27.36C940,327.16,932,248,883.29,197.21c-1-1.05-2-2.05-3-3.12a10.22,10.22,0,0,1,.19-14.13,9.87,9.87,0,0,1,14.28-.1,238.47,238.47,0,0,1,17.54,20.35C935.14,231.14,946.14,266.08,946.47,307Z" transform="translate(-472.51 -16.77)"/><path class="cls-1" d="M858,303.2c-.45-22.72-8.67-43.21-25.21-60.28-5.91-6.1-3.71-15.38,4.12-17.48,4.24-1.14,7.71.32,10.69,3.41,14.15,14.61,23.94,31.7,28,51.64,7.77,37.78-1.46,71-27.9,99.26-2.92,3.12-6.38,4.67-10.64,3.6-7.66-1.92-10.12-10.94-4.89-17,4.27-5,8.65-9.9,12.22-15.34C853.72,336.84,857.86,321.05,858,303.2Z" transform="translate(-472.51 -16.77)"/><circle class="cls-2" cx="287.57" cy="287.57" r="279.57"/></svg>