<svg id="Layer_1" data-name="Layer 1" xmlns="http://www.w3.org/2000/svg" viewBox="0 0 279.33 147.44"><defs><style>.cls-1{fill:#38ffff;}</style></defs><path class="cls-1" d="M308.6,286.21H198.47a62,62,0,1,1,0-124H308.6a62,62,0,1,1,0,124ZM198.47,168.72a55.49,55.49,0,1,0,0,111H308.6a55.49,55.49,0,0,0,0-111Z" transform="translate(-113.87 -138.77)"/><path class="cls-1" d="M367.35,227.47a3.26,3.26,0,0,1-3.26-3.26,55.55,55.55,0,0,0-55.49-55.49H198.47A55.56,55.56,0,0,0,143,224.21a3.26,3.26,0,1,1-6.51,0V200.77a62.08,62.08,0,0,1,62-62H308.6a62.07,62.07,0,0,1,62,62v23.44A3.26,3.26,0,0,1,367.35,227.47ZM198.47,162.21H308.6a62,62,0,0,1,55.3,34,55.56,55.56,0,0,0-55.3-50.92H198.47a55.57,55.57,0,0,0-55.31,50.92A62.06,62.06,0,0,1,198.47,162.21Z" transform="translate(-113.87 -138.77)"/><path class="cls-1" d="M308.63,245.91a3.24,3.24,0,0,1-3.05-2.12l-11-29.66a3.25,3.25,0,1,1,6.1-2.26l7.92,21.41,7.92-21.41a3.26,3.26,0,1,1,6.11,2.26l-11,29.66A3.23,3.23,0,0,1,308.63,245.91Z" transform="translate(-113.87 -138.77)"/><path class="cls-1" d="M339.19,231.9H328.82a3.25,3.25,0,0,1-3.25-3.26V213a3.25,3.25,0,0,1,3.25-3.26h10.37a9.62,9.62,0,0,1,9.6,9.6v3A9.62,9.62,0,0,1,339.19,231.9Zm-7.11-6.51h7.11a3.1,3.1,0,0,0,3.09-3.09v-3a3.1,3.1,0,0,0-3.09-3.09h-7.11Z" transform="translate(-113.87 -138.77)"/><path class="cls-1" d="M345.53,245.91a3.22,3.22,0,0,1-2.08-.76l-11.37-9.53v7a3.26,3.26,0,0,1-6.51,0v-14a3.25,3.25,0,0,1,5.34-2.49l16.72,14a3.27,3.27,0,0,1,.4,4.59A3.24,3.24,0,0,1,345.53,245.91Z" transform="translate(-113.87 -138.77)"/><path class="cls-1" d="M170.74,209.12A10.26,10.26,0,1,1,181,198.86,10.27,10.27,0,0,1,170.74,209.12Zm0-14a3.75,3.75,0,1,0,3.75,3.74A3.75,3.75,0,0,0,170.74,195.12Z" transform="translate(-113.87 -138.77)"/><path class="cls-1" d="M367.35,227.47a3.27,3.27,0,0,1-3.26-3.26V182.75a17.27,17.27,0,0,1,17.25-17.25H388a3.26,3.26,0,0,1,3.17,2.49c4,16.67,4.48,50.52-22.84,59.32A3.36,3.36,0,0,1,367.35,227.47Zm14-55.46a10.75,10.75,0,0,0-10.74,10.74v36.61c19.64-10,16.26-38.71,14.74-47.35Z" transform="translate(-113.87 -138.77)"/><path class="cls-1" d="M139.72,227.47a3.43,3.43,0,0,1-1-.16c-27.31-8.8-26.88-42.65-22.83-59.32a3.25,3.25,0,0,1,3.16-2.49h6.67A17.27,17.27,0,0,1,143,182.75v41.46a3.25,3.25,0,0,1-1.33,2.63A3.29,3.29,0,0,1,139.72,227.47Zm-18-55.46c-1.51,8.64-4.89,37.34,14.74,47.35V182.75A10.75,10.75,0,0,0,125.72,172Z" transform="translate(-113.87 -138.77)"/></svg>