<svg id="Layer_1" data-name="Layer 1" xmlns="http://www.w3.org/2000/svg" viewBox="0 0 271.68 151.55"><defs><style>.cls-1{fill:#38ffff;}</style></defs><path class="cls-1" d="M235.57,244.5a3.25,3.25,0,0,1-3.06-2.13l-15.2-41.1a3.25,3.25,0,1,1,6.1-2.26l12.16,32.85L247.72,199a3.25,3.25,0,1,1,6.1,2.26l-15.2,41.1A3.25,3.25,0,0,1,235.57,244.5Z" transform="translate(-117.69 -136.72)"/><path class="cls-1" d="M280.36,225.07H263.54a3.24,3.24,0,0,1-3.25-3.25V200.14a3.25,3.25,0,0,1,3.25-3.26h16.82a9.62,9.62,0,0,1,9.6,9.6v9A9.62,9.62,0,0,1,280.36,225.07Zm-13.56-6.51h13.56a3.09,3.09,0,0,0,3.09-3.09v-9a3.1,3.1,0,0,0-3.09-3.09H266.8Z" transform="translate(-117.69 -136.72)"/><path class="cls-1" d="M286.7,244.5a3.22,3.22,0,0,1-2.08-.76l-17.82-15v12.45a3.26,3.26,0,1,1-6.51,0V221.82a3.26,3.26,0,0,1,5.34-2.5l23.17,19.43a3.26,3.26,0,0,1-2.1,5.75Z" transform="translate(-117.69 -136.72)"/><path class="cls-1" d="M369.29,175.14H137.78a3.26,3.26,0,1,1,0-6.51H369.29a3.26,3.26,0,1,1,0,6.51Z" transform="translate(-117.69 -136.72)"/><path class="cls-1" d="M337.21,288.27h-56a3.25,3.25,0,0,1-3.07-2.17l-7.91-22.41H236.83l-7.91,22.41a3.26,3.26,0,0,1-3.07,2.17h-56a43.94,43.94,0,0,1-44.13-42.95A3.26,3.26,0,0,1,129,242h2.76a2.79,2.79,0,0,0,2.78-2.78V196.62a2.79,2.79,0,0,0-2.78-2.79h-2.22a3.26,3.26,0,0,1-3.22-3.78,44,44,0,0,1,43.55-36.94H337.21a44,44,0,0,1,43.55,36.94,3.26,3.26,0,0,1-3.21,3.78h-2.22a2.78,2.78,0,0,0-2.78,2.79v42.57a2.78,2.78,0,0,0,2.78,2.78h2.76a3.25,3.25,0,0,1,2.33,1,3.2,3.2,0,0,1,.92,2.36A43.93,43.93,0,0,1,337.21,288.27Zm-53.69-6.51h53.69a37.43,37.43,0,0,0,37.39-33.31,9.3,9.3,0,0,1-8.56-9.26V196.62a9.31,9.31,0,0,1,7.52-9.13,37.5,37.5,0,0,0-36.35-27.87H169.85a37.49,37.49,0,0,0-36.34,27.87,9.31,9.31,0,0,1,7.52,9.13v42.57a9.3,9.3,0,0,1-8.57,9.26,37.44,37.44,0,0,0,37.39,33.31h53.7l7.91-22.41a3.25,3.25,0,0,1,3.07-2.17h38a3.26,3.26,0,0,1,3.07,2.17Z" transform="translate(-117.69 -136.72)"/><path class="cls-1" d="M380.08,248.48h-4.75a9.3,9.3,0,0,1-9.29-9.29V196.62a9.3,9.3,0,0,1,9.29-9.3h4.75a9.31,9.31,0,0,1,9.29,9.3v42.57A9.3,9.3,0,0,1,380.08,248.48Zm-4.75-54.65a2.78,2.78,0,0,0-2.78,2.79v42.57a2.78,2.78,0,0,0,2.78,2.78h4.75a2.79,2.79,0,0,0,2.78-2.78V196.62a2.79,2.79,0,0,0-2.78-2.79Z" transform="translate(-117.69 -136.72)"/><path class="cls-1" d="M131.74,248.48H127a9.31,9.31,0,0,1-9.3-9.29V196.62a9.31,9.31,0,0,1,9.3-9.3h4.75a9.31,9.31,0,0,1,9.29,9.3v42.57A9.3,9.3,0,0,1,131.74,248.48ZM127,193.83a2.79,2.79,0,0,0-2.79,2.79v42.57A2.79,2.79,0,0,0,127,242h4.75a2.79,2.79,0,0,0,2.78-2.78V196.62a2.79,2.79,0,0,0-2.78-2.79Z" transform="translate(-117.69 -136.72)"/><path class="cls-1" d="M290.48,159.62H216.59a3.26,3.26,0,0,1-2.68-5.11l11.41-16.4a3.27,3.27,0,0,1,2.67-1.39h51.08a3.27,3.27,0,0,1,2.68,1.39l11.4,16.4a3.26,3.26,0,0,1-2.67,5.11Zm-67.66-6.51h61.43l-6.88-9.88H229.69Z" transform="translate(-117.69 -136.72)"/><path class="cls-1" d="M266.37,159.62H240.69a3.25,3.25,0,0,1-3.16-4l4-16.39a3.26,3.26,0,0,1,3.17-2.49h17.75a3.25,3.25,0,0,1,3.16,2.49l4,16.39a3.26,3.26,0,0,1-3.17,4Zm-21.54-6.51h17.41l-2.39-9.88H247.22Z" transform="translate(-117.69 -136.72)"/></svg>