<svg id="Layer_1" data-name="Layer 1" xmlns="http://www.w3.org/2000/svg" viewBox="0 0 262.81 162.63"><defs><style>.cls-1{fill:#38ffff;}</style></defs><path class="cls-1" d="M330.39,293.81H176.67a40.26,40.26,0,0,1-40.21-40.21V210a40.26,40.26,0,0,1,40.21-40.21H330.39A40.26,40.26,0,0,1,370.6,210V253.6A40.26,40.26,0,0,1,330.39,293.81ZM176.67,176.31A33.74,33.74,0,0,0,143,210V253.6a33.74,33.74,0,0,0,33.7,33.7H330.39a33.74,33.74,0,0,0,33.7-33.7V210a33.74,33.74,0,0,0-33.7-33.7Z" transform="translate(-122.13 -131.18)"/><path class="cls-1" d="M330.39,280.79H176.67a27.22,27.22,0,0,1-27.19-27.19V210a27.22,27.22,0,0,1,27.19-27.19H330.39A27.22,27.22,0,0,1,357.58,210V253.6A27.22,27.22,0,0,1,330.39,280.79ZM176.67,189.33A20.71,20.71,0,0,0,156,210V253.6a20.71,20.71,0,0,0,20.68,20.68H330.39a20.71,20.71,0,0,0,20.68-20.68V210a20.71,20.71,0,0,0-20.68-20.68Z" transform="translate(-122.13 -131.18)"/><path class="cls-1" d="M293.57,176.31H213.5a3.26,3.26,0,0,1-3.26-3.25V162.42a3.26,3.26,0,0,1,3.26-3.25h80.07a3.25,3.25,0,0,1,3.25,3.25v10.64A3.25,3.25,0,0,1,293.57,176.31Zm-76.82-6.51h73.56v-4.12H216.75Z" transform="translate(-122.13 -131.18)"/><path class="cls-1" d="M279,165.68H228.08a3.26,3.26,0,0,1-2.68-1.4,3.22,3.22,0,0,1-.37-3l10.41-28a3.25,3.25,0,0,1,3.05-2.12h30.08a3.24,3.24,0,0,1,3.05,2.12l10.42,28a3.26,3.26,0,0,1-3.05,4.39Zm-46.23-6.51H274.3l-8-21.48H240.75Z" transform="translate(-122.13 -131.18)"/><path class="cls-1" d="M374.85,250.74h-7.54a3.26,3.26,0,0,1-3.25-3.25V208.64a3.26,3.26,0,0,1,3.25-3.26h7.54a10.11,10.11,0,0,1,10.09,10.09v25.18A10.1,10.1,0,0,1,374.85,250.74Zm-4.28-6.51h4.28a3.58,3.58,0,0,0,3.58-3.58V215.47a3.59,3.59,0,0,0-3.58-3.58h-4.28Z" transform="translate(-122.13 -131.18)"/><path class="cls-1" d="M139.75,250.74h-7.53a10.09,10.09,0,0,1-10.09-10.09V215.47a10.1,10.1,0,0,1,10.09-10.09h7.53a3.26,3.26,0,0,1,3.26,3.26v38.85A3.26,3.26,0,0,1,139.75,250.74Zm-7.53-38.85a3.58,3.58,0,0,0-3.58,3.58v25.18a3.58,3.58,0,0,0,3.58,3.58h4.28V211.89Z" transform="translate(-122.13 -131.18)"/><path class="cls-1" d="M161.13,275.05a3.25,3.25,0,0,1-2.56-5.26l66.94-85.72a3.26,3.26,0,1,1,5.13,4L163.7,273.8A3.25,3.25,0,0,1,161.13,275.05Z" transform="translate(-122.13 -131.18)"/><path class="cls-1" d="M220.23,280.79a3.25,3.25,0,0,1-2.59-5.22L287,184.11a3.26,3.26,0,0,1,5.19,3.93L222.83,279.5A3.26,3.26,0,0,1,220.23,280.79Z" transform="translate(-122.13 -131.18)"/><path class="cls-1" d="M280.12,280.79a3.25,3.25,0,0,1-2.59-5.22l65.3-86.14a3.26,3.26,0,0,1,5.19,3.94l-65.3,86.13A3.26,3.26,0,0,1,280.12,280.79Z" transform="translate(-122.13 -131.18)"/></svg>