<svg id="Layer_1" data-name="Layer 1" xmlns="http://www.w3.org/2000/svg" viewBox="0 0 493.65 575.3"><defs><style>.cls-1{fill:none;stroke:#38ffff;stroke-miterlimit:10;stroke-width:3px;}.cls-2{fill:#38ffff;}</style></defs><path class="cls-1" d="M309.18,197.35s3.06-13,53.85-31.84c0,0,57.67-19.95,78.49-24.56,16-3.59,23.48,5,23.48,5" transform="translate(-262.54 -138.57)"/><path class="cls-1" d="M465,156.11s-1.33-2.5-11.84-3.65-27.49,4-27.49,4S363,177.78,340.88,186.61c-15.15,6-24.41,14.14-28.74,18.65a12.12,12.12,0,0,0-3.33,7.33c-.95,10.54-3.22,39.15-.58,45.38,3.24,7.67,15.85,5.37,22.34,3.26s50-23.6,56.52-24.36c0,0,44.5-14,59.2-16.31s23.11-15,23.49-27.05S472.45,162.82,465,156.11Z" transform="translate(-262.54 -138.57)"/><path class="cls-1" d="M308.49,216.35s50.53-22.26,63.14-27.06,45.83-14,45.83-14l51.63-11.63" transform="translate(-262.54 -138.57)"/><path class="cls-1" d="M307.76,226.1s13.83,2.34,33.5-9.75S414,190,414,190s52.44-11.83,56.3-17.39" transform="translate(-262.54 -138.57)"/><path class="cls-1" d="M307.26,235s9.94,9.4,34.39-4.61,79.82-29.15,79.82-29.15,38.88-7.34,48.85-19.69" transform="translate(-262.54 -138.57)"/><path class="cls-1" d="M307,244.16s4.09,10.35,17.65,6.71,59-24.58,59-24.58,39.33-12.06,55.18-14.94,31-19.36,31-19.36" transform="translate(-262.54 -138.57)"/><path class="cls-1" d="M311.09,261.39s7.26,15.57,21.29,8.95c12-5.67,35-15.15,47.28-20.64a53.66,53.66,0,0,1,10.09-3.38c16.15-3.66,56.92-15.11,56.92-15.11s23.78-3.74,29.22-25.32A304.75,304.75,0,0,0,477.75,166" transform="translate(-262.54 -138.57)"/><path class="cls-1" d="M481.62,212.94c-5.3,23.88-34.52,27.19-34.52,27.19s-54.56,8.34-63.87,11.52-26.5,13.65-39.39,22.14-21.53-2.25-21.53-2.25" transform="translate(-262.54 -138.57)"/><path class="cls-1" d="M331.78,276.87s5.62,12.6,17.36,3.4c9.1-7.14,16.91-15.22,26.56-21.65a32.48,32.48,0,0,1,16.74-5.37c25-1,51.08-3.2,51.08-3.2s36.81-1,43.54-31" transform="translate(-262.54 -138.57)"/><path class="cls-1" d="M340.39,283.6s6.75,13.07,16.63,2.13,16.45-23.86,26.64-28.19c7.68-3.27,31.6-.72,42.92.74a84.53,84.53,0,0,0,20,.31c16.1-1.74,40.93-8.35,44.94-32.3" transform="translate(-262.54 -138.57)"/><path class="cls-1" d="M349,290.09s8.4,13.24,18.71-.57c6-8,10.19-17.81,13.42-23.56a12.45,12.45,0,0,1,11.5-6.36l31.72,2.71c1.17.1,2.33.24,3.49.41,7.65,1.15,40.57,5.51,51.68-2.36,12.6-8.92,17.76-23.3,18.71-27.33" transform="translate(-262.54 -138.57)"/><path class="cls-1" d="M357.16,295.81s18.06,10.32,23.44-12.18c2.42-11.19,5.44-16.23,7.67-18.5a5.87,5.87,0,0,1,5-1.6l67.18,9.12c1.07.14,2.13.34,3.19.53,5,.92,25.94,2.44,38.8-32.48" transform="translate(-262.54 -138.57)"/><path class="cls-1" d="M481.62,175.39v34.38l72.18,82s.19,23.59,3.63,28.58,10.88,6.91,12,3.65,0-40.33,0-40.33" transform="translate(-262.54 -138.57)"/><line class="cls-1" x1="227.82" y1="46.88" x2="227.82" y2="72.78"/><line class="cls-1" x1="235.57" y1="56.27" x2="235.57" y2="82.16"/><line class="cls-1" x1="242.88" y1="64.83" x2="242.88" y2="90.72"/><line class="cls-1" x1="250.19" y1="73.57" x2="250.19" y2="99.46"/><line class="cls-1" x1="257.51" y1="81.51" x2="257.51" y2="107.41"/><line class="cls-1" x1="265.77" y1="90.82" x2="265.77" y2="116.72"/><line class="cls-1" x1="273.22" y1="99.8" x2="273.22" y2="125.7"/><line class="cls-1" x1="280.38" y1="106.67" x2="280.38" y2="132.57"/><line class="cls-1" x1="288.11" y1="116.05" x2="288.11" y2="141.95"/><line class="cls-1" x1="295.85" y1="124.65" x2="295.85" y2="150.55"/><line class="cls-1" x1="302.15" y1="129" x2="302.15" y2="154.9"/><path class="cls-1" d="M399.7,302.42l-4.91-.78a4,4,0,0,0-4.35,2.61l-6.09,17.37a.56.56,0,0,0,.93.59l10.64-10.81a2.9,2.9,0,0,1,1.86-.85l3.67-.27a3.24,3.24,0,0,0,2.12-1l1.74-1.8a2.89,2.89,0,0,1,2.7-.84l22.31,4.75a.09.09,0,0,0,.06-.16l-19.65-13.08a3.77,3.77,0,0,0-4.07-.06Z" transform="translate(-262.54 -138.57)"/><path class="cls-1" d="M390.78,279.74l-2.28,8.77a.53.53,0,0,0,.61.66l6.65-1.28a.54.54,0,0,0,.36-.79l-4.37-7.5A.53.53,0,0,0,390.78,279.74Z" transform="translate(-262.54 -138.57)"/><path class="cls-1" d="M400.59,275.45,413.42,282a.57.57,0,0,1-.22,1.07l-8.58.57a.57.57,0,0,1-.52-.27l-4.25-7.09A.57.57,0,0,1,400.59,275.45Z" transform="translate(-262.54 -138.57)"/><path class="cls-1" d="M387.67,339.11s6.73-13.52,17.61-15.11,22.92,2.16,22.92,2.16" transform="translate(-262.54 -138.57)"/><path class="cls-1" d="M372.2,319s-2.44,58.41,13.89,71.36c0,0-21.91,2-24.06-25s10.06-35.1,10.06-35.1" transform="translate(-262.54 -138.57)"/><path class="cls-1" d="M660.16,699.36,643,599.72s-6.42-28.57-17-40.68a3.36,3.36,0,0,0-4.54-.43l-46.86,35.21a18,18,0,0,1-5.11,2.7l-39.29,13.25a29.93,29.93,0,0,1-7.07,1.46l-111.57,9.22a3.36,3.36,0,0,0-1.54.52c-6.36,4.11-54.79,34.87-77.6,35.23-20,.31-26.42-8.84-28.12-12.21a3.36,3.36,0,0,1-.28-2.29l9.56-42.52a24.7,24.7,0,0,1,3-7.46L342.51,549a29.18,29.18,0,0,1,7.51-8.26l28-20.84a26.52,26.52,0,0,1,3.07-2l18.44-9.88a12.94,12.94,0,0,1,6.12-1.53h4.1a3.38,3.38,0,0,0,1.92-.6h0a10.77,10.77,0,0,1,12.58.28l1.86,1.4a3.35,3.35,0,0,0,4.11,0c8.36-6.62,42.7-31.34,95.6-37.31,55.39-6.25,71-17.2,73.46-19.24a3.11,3.11,0,0,1,1-.53c4.69-1.55,35.93-11.12,68.14-2.1,35,9.79,65.88,47.19,75,75.39,8.16,25.1,3.38,38.57,2.23,41.23a3.18,3.18,0,0,0-.26,1.25c0,1.76.43,6.46,4.4,12.59,0,0,4.9,72.69,4.9,74.41s-2.87,46-2.87,46" transform="translate(-262.54 -138.57)"/><path class="cls-1" d="M411.62,620.45s-8.1-32.54-2.38-65.15,19.05-47,19.05-47" transform="translate(-262.54 -138.57)"/><path class="cls-1" d="M621.52,558.61l6-27.92A42.86,42.86,0,0,0,626,507.45l-1.42-4a18.25,18.25,0,0,0-4.43-7l-4.75-4.69a19.43,19.43,0,0,1-5.08-8.64L608,475.1a24.22,24.22,0,0,0-12.43-15.16L589,456.62" transform="translate(-262.54 -138.57)"/><path class="cls-1" d="M531,346.45a80.33,80.33,0,0,1-5.52,18.63c-10.12,21.68-31.41,9.71-31.41,9.71S450.11,347.74,440.66,346c-28.36-5.47-42.11-1-53,10.21s-1.58,32.8-.72,36.54,22.47,26.33,22.47,26.33l1.16,74.53-8.62,14" transform="translate(-262.54 -138.57)"/><path class="cls-1" d="M615.4,446.82l-58.74-10.45-16-10.72L538,383.42s11.75-15.25,13.75-21.29" transform="translate(-262.54 -138.57)"/><path class="cls-1" d="M502.43,377.66s-44.6,69-45.74,113.34" transform="translate(-262.54 -138.57)"/><path class="cls-1" d="M510.62,377.66S479,458.52,477.56,481.83" transform="translate(-262.54 -138.57)"/><path class="cls-1" d="M505.69,378.05s-37.85,78.4-36.69,107.2" transform="translate(-262.54 -138.57)"/><path class="cls-1" d="M515.63,376.07S490.06,457.58,488.84,478" transform="translate(-262.54 -138.57)"/><path class="cls-1" d="M519.45,373.46s-22.08,89.11-21.22,101.9" transform="translate(-262.54 -138.57)"/><path class="cls-1" d="M523.62,368.44S506.05,460.25,508.83,473" transform="translate(-262.54 -138.57)"/><path class="cls-1" d="M516.08,470.7s3.34-53.38,4.68-59.85c2-9.54,5.21-47,5.21-47" transform="translate(-262.54 -138.57)"/><path class="cls-1" d="M529.7,352.27s-8.68,71.29-.35,117.64" transform="translate(-262.54 -138.57)"/><path class="cls-1" d="M531,346.45s-8.48,97.4,17.91,120.66" transform="translate(-262.54 -138.57)"/><path class="cls-1" d="M530.56,325.33c0-19.44-2.33-31,6.66-31s25.89,11.58,25.89,31,1.69,31.61-7.29,31.61S530.56,344.78,530.56,325.33Z" transform="translate(-262.54 -138.57)"/><path class="cls-1" d="M526,318.69c0-24.95-3-39.81,8.54-39.81s33.23,14.86,33.23,39.81,2.18,40.56-9.36,40.56S526,343.65,526,318.69Z" transform="translate(-262.54 -138.57)"/><path class="cls-1" d="M538.38,317.76c0-16.56-2-26.41,5.67-26.41s22,9.85,22,26.41,1.45,26.91-6.2,26.91S538.38,334.32,538.38,317.76Z" transform="translate(-262.54 -138.57)"/><path class="cls-1" d="M372.31,524.18l-10.55,2.26a82.89,82.89,0,0,0-23.58,9l-5.13,2.92a28.93,28.93,0,0,1-4.14,1.95c-8.36,3.15-40.36,16.21-47.65,34.18-25.93,59-14.89,74.43-14.89,74.43s6.53,10.74,7.68,18.8a30.76,30.76,0,0,0,6.49,14.2l2.67,31.84" transform="translate(-262.54 -138.57)"/><polygon class="cls-2" points="287.82 346.68 230.14 346.68 184.75 397.57 199.68 451.1 262.05 451.1 308.9 404.04 252.97 404.04 212.86 435.22 287.82 346.68"/></svg>