<svg id="Layer_1" data-name="Layer 1" xmlns="http://www.w3.org/2000/svg" viewBox="0 0 935 631.99"><defs><style>.cls-1{fill:aqua;}.cls-2{fill:#ed1c24;}.cls-3{fill:blue;}.cls-4{fill:#e6e6e6;}.cls-5{fill:lime;}.cls-6{fill:#ff931e;}.cls-7{fill:#f0f;}.cls-8{fill:#ff0;}.cls-9{font-size:21.39px;}.cls-26,.cls-30,.cls-46,.cls-9{fill:#fff;}.cls-26,.cls-30,.cls-9{font-family:SegoeUI-Bold, Segoe UI;font-weight:700;}.cls-10{letter-spacing:0em;}.cls-11{letter-spacing:0em;}.cls-12{letter-spacing:0em;}.cls-13{letter-spacing:0em;}.cls-14{letter-spacing:-0.01em;}.cls-15{letter-spacing:-0.01em;}.cls-16{letter-spacing:0.02em;}.cls-17{letter-spacing:-0.01em;}.cls-18{letter-spacing:-0.01em;}.cls-19{letter-spacing:0em;}.cls-20{letter-spacing:-0.02em;}.cls-21{letter-spacing:0em;}.cls-22{letter-spacing:0.04em;}.cls-23{letter-spacing:0em;}.cls-24{letter-spacing:0.02em;}.cls-25{letter-spacing:0em;}.cls-26,.cls-30{font-size:21.64px;}.cls-27,.cls-30{letter-spacing:0.01em;}.cls-28{letter-spacing:0em;}.cls-29{letter-spacing:-0.01em;}.cls-31{letter-spacing:0em;}.cls-32{letter-spacing:0em;}.cls-33{letter-spacing:0em;}.cls-34{letter-spacing:0em;}.cls-35{letter-spacing:-0.01em;}.cls-36{letter-spacing:0em;}.cls-37{letter-spacing:0em;}.cls-38{letter-spacing:-0.01em;}.cls-39{letter-spacing:-0.03em;}.cls-40{letter-spacing:0em;}.cls-41{letter-spacing:0em;}.cls-42{letter-spacing:0.03em;}.cls-43{letter-spacing:0.01em;}.cls-44{letter-spacing:0.06em;}.cls-45{fill:none;stroke:#fff;stroke-miterlimit:10;fill-rule:evenodd;}</style></defs><path class="cls-1" d="M560.08,228.14a188.86,188.86,0,0,1,176.8,243.34L560.08,414V228.14m-4-4V416.94l183.4,59.59a192.59,192.59,0,0,0,9.44-59.59c0-106.5-86.34-192.84-192.84-192.84Z" transform="translate(-82.51 -126.22)"/><path class="cls-2" d="M578.85,428.55l155.54,50.54a189,189,0,0,1-23.23,45.59L578.85,428.55m-22.79-11.61,156,113.35a193.07,193.07,0,0,0,27.39-53.76L556.06,416.94Z" transform="translate(-82.51 -126.22)"/><path class="cls-3" d="M560.06,424.79,706.45,531.15a188.81,188.81,0,0,1-146.39,74.59V424.79m-4-7.85V609.78a192.86,192.86,0,0,0,156-79.49l-156-113.35Z" transform="translate(-82.51 -126.22)"/><path class="cls-4" d="M552.06,442.2V605.74a188.72,188.72,0,0,1-50.54-8L552.06,442.2m4-25.26L496.47,600.35a193,193,0,0,0,59.59,9.44V416.94Z" transform="translate(-82.51 -126.22)"/><path class="cls-5" d="M549.83,423.17l-55.91,172.1A188.87,188.87,0,0,1,377.74,479.09l172.09-55.92m6.23-6.23-183.4,59.59A192.84,192.84,0,0,0,496.47,600.35l59.59-183.41Z" transform="translate(-82.51 -126.22)"/><path class="cls-6" d="M441.85,266.55,549.59,414.84,375.26,471.48a188.86,188.86,0,0,1,66.59-204.93m.86-5.62a192.83,192.83,0,0,0-70,215.6l183.4-59.59-113.35-156Z" transform="translate(-82.51 -126.22)"/><path class="cls-7" d="M493.92,238.62l50.53,155.54L448.32,261.85a188.39,188.39,0,0,1,45.6-23.23m2.55-5.08a192.67,192.67,0,0,0-53.76,27.39l113.35,156-59.59-183.4Z" transform="translate(-82.51 -126.22)"/><path class="cls-8" d="M552.06,228.14V391.69L501.52,236.14a188.72,188.72,0,0,1,50.54-8m4-4a192.68,192.68,0,0,0-59.59,9.44l59.59,183.4V224.1Z" transform="translate(-82.51 -126.22)"/><text class="cls-9" transform="translate(703.54 134.44)">L<tspan class="cls-10" x="10.93" y="0">i</tspan><tspan class="cls-11" x="17.05" y="0">s</tspan><tspan class="cls-12" x="26.42" y="0">t</tspan><tspan class="cls-13" x="34.74" y="0"> </tspan><tspan class="cls-14" x="40.71" y="0">o</tspan><tspan class="cls-15" x="53.65" y="0">n</tspan><tspan class="cls-16" x="66.4" y="0"> </tspan><tspan class="cls-10" x="72.64" y="0">P</tspan><tspan class="cls-17" x="85.82" y="0">a</tspan><tspan class="cls-18" x="97.2" y="0">n</tspan><tspan class="cls-19" x="109.95" y="0">c</tspan><tspan class="cls-17" x="120.15" y="0">a</tspan><tspan class="cls-20" x="131.53" y="0">k</tspan><tspan class="cls-21" x="143.01" y="0">e</tspan><tspan class="cls-22" x="154.52" y="0"> </tspan><tspan class="cls-23" x="161.34" y="0">S</tspan><tspan class="cls-24" x="173.39" y="0">w</tspan><tspan class="cls-14" x="190.96" y="0">a</tspan><tspan class="cls-25" x="202.34" y="0">p</tspan></text><text class="cls-26" transform="translate(859.97 169.39)"><tspan class="cls-27">30</tspan><tspan x="25.15" y="0">%</tspan></text><text class="cls-9" transform="translate(762.98 363.72)"><tspan class="cls-11">ID</tspan><tspan class="cls-28" x="22.46" y="0">O</tspan><tspan class="cls-23" x="38.59" y="0"> </tspan><tspan class="cls-29" x="44.56" y="0">W</tspan><tspan class="cls-15" x="65.77" y="0">h</tspan><tspan class="cls-10" x="78.45" y="0">i</tspan><tspan x="84.57" y="0">t</tspan><tspan class="cls-21" x="92.9" y="0">e</tspan><tspan x="104.4" y="0">L</tspan><tspan class="cls-10" x="115.33" y="0">i</tspan><tspan class="cls-11" x="121.46" y="0">s</tspan><tspan x="130.82" y="0">t</tspan></text><text class="cls-30" transform="translate(859.96 396.33)">5<tspan class="cls-31" x="12.58" y="0">%</tspan></text><text class="cls-26" transform="translate(624.12 476.93)"><tspan class="cls-32">P</tspan><tspan class="cls-33" x="13.33" y="0">r</tspan><tspan x="21.88" y="0">e</tspan></text><text class="cls-26" transform="translate(665.91 476.93)">-</text><text class="cls-26" transform="translate(680.91 476.93)"><tspan class="cls-34">s</tspan><tspan class="cls-35" x="9.48" y="0">a</tspan><tspan class="cls-36" x="20.99" y="0">l</tspan><tspan class="cls-33" x="27.18" y="0">e</tspan><tspan x="38.82" y="0"> </tspan></text><text class="cls-30" transform="translate(651.07 504.78)">1<tspan class="cls-31" x="12.58" y="0">8%</tspan></text><text class="cls-9" transform="translate(341.3 592.66)"><tspan class="cls-11">A</tspan><tspan class="cls-19" x="14.99" y="0">r</tspan><tspan class="cls-10" x="23.44" y="0">i</tspan><tspan class="cls-15" x="29.56" y="0">d</tspan><tspan class="cls-21" x="42.61" y="0">r</tspan><tspan class="cls-17" x="51.06" y="0">o</tspan><tspan x="64" y="0">p</tspan></text><text class="cls-26" transform="translate(363.47 622.67)">2%</text><text class="cls-26" transform="translate(195.86 426.22)">Burn</text><text class="cls-26" transform="translate(201.04 455.82)"><tspan class="cls-27">15</tspan><tspan x="25.15" y="0">%</tspan></text><text class="cls-9" transform="translate(12.08 155.97)"><tspan class="cls-37">G</tspan><tspan class="cls-38" x="15.12" y="0">a</tspan><tspan class="cls-39" x="26.5" y="0">m</tspan><tspan class="cls-40" x="45.38" y="0">e</tspan><tspan class="cls-22" x="56.89" y="0"> </tspan><tspan class="cls-41" x="63.71" y="0">N</tspan><tspan class="cls-10" x="80.56" y="0">F</tspan><tspan x="91.73" y="0">T</tspan><tspan class="cls-13" x="104.26" y="0"> </tspan><tspan class="cls-11" x="110.22" y="0">C</tspan><tspan class="cls-10" x="123.52" y="0">li</tspan><tspan class="cls-19" x="135.77" y="0">c</tspan><tspan class="cls-20" x="145.97" y="0">k</tspan><tspan class="cls-42" x="157.45" y="0"> </tspan><tspan x="163.97" y="0">T</tspan><tspan class="cls-14" x="176.5" y="0">o</tspan><tspan class="cls-13" x="189.45" y="0"> </tspan><tspan class="cls-12" x="195.41" y="0">E</tspan><tspan class="cls-17" x="206.8" y="0">a</tspan><tspan class="cls-21" x="218.18" y="0">r</tspan><tspan x="226.62" y="0">n</tspan></text><text class="cls-26" transform="translate(107.43 186.53)"><tspan class="cls-27">20</tspan><tspan x="25.15" y="0">%</tspan></text><text class="cls-9" transform="translate(170.61 49.55)"><tspan class="cls-11">D</tspan><tspan class="cls-21" x="15.73" y="0">e</tspan><tspan class="cls-17" x="27.23" y="0">v</tspan><tspan class="cls-21" x="38.7" y="0">e</tspan><tspan class="cls-10" x="50.2" y="0">l</tspan><tspan class="cls-17" x="56.32" y="0">o</tspan><tspan class="cls-15" x="69.27" y="0">p</tspan><tspan class="cls-39" x="82.34" y="0">m</tspan><tspan class="cls-43" x="101.22" y="0">e</tspan><tspan class="cls-15" x="112.98" y="0">n</tspan><tspan class="cls-12" x="125.73" y="0">t</tspan><tspan class="cls-44" x="134.05" y="0"> </tspan><tspan x="141.15" y="0">T</tspan><tspan class="cls-19" x="153.68" y="0">e</tspan><tspan class="cls-14" x="165.19" y="0">a</tspan><tspan class="cls-39" x="176.57" y="0">m</tspan><tspan x="195.45" y="0"> </tspan></text><text class="cls-30" transform="translate(249.58 72.55)">5<tspan class="cls-31" x="12.58" y="0">%</tspan></text><text class="cls-9" transform="translate(506.03 18.18)"><tspan class="cls-16">M</tspan><tspan class="cls-17" x="20.81" y="0">a</tspan><tspan class="cls-21" x="32.19" y="0">r</tspan><tspan class="cls-20" x="40.64" y="0">k</tspan><tspan class="cls-21" x="52.12" y="0">e</tspan><tspan x="63.63" y="0">t</tspan><tspan class="cls-10" x="71.95" y="0">i</tspan><tspan class="cls-15" x="78.07" y="0">n</tspan><tspan x="90.82" y="0">g</tspan></text><text class="cls-30" transform="translate(573.81 41.87)">5<tspan class="cls-31" x="12.58" y="0">%</tspan></text><polyline class="cls-45" points="932.26 179.51 677.07 179.51 646.54 209.35"/><circle class="cls-46" cx="932.26" cy="180.2" r="2.74"/><circle class="cls-46" cx="676.38" cy="180.2" r="2.74"/><circle class="cls-46" cx="676.38" cy="407.26" r="2.74"/><circle class="cls-46" cx="919.91" cy="407.26" r="2.74"/><circle class="cls-46" cx="765.56" cy="521.82" r="2.74"/><circle class="cls-46" cx="363.57" cy="564.35" r="2.74"/><circle class="cls-46" cx="318.98" cy="477.23" r="2.74"/><circle class="cls-46" cx="142" cy="477.23" r="2.74"/><circle class="cls-46" cx="2.74" cy="198.72" r="2.74"/><circle class="cls-46" cx="253.82" cy="198.72" r="2.74"/><circle class="cls-46" cx="362.89" cy="80.04" r="2.74"/><circle class="cls-46" cx="452.75" cy="49.86" r="2.74"/><circle class="cls-46" cx="622.88" cy="49.86" r="2.74"/><circle class="cls-46" cx="173.55" cy="79.36" r="2.74"/><circle class="cls-46" cx="426.68" cy="564.35" r="2.74"/><circle class="cls-46" cx="598.87" cy="521.82" r="2.74"/><polyline class="cls-45" points="644.5 379.96 676.38 407.26 919.91 407.26"/><polyline class="cls-45" points="765.56 521.82 598.87 521.82 551.56 467.08"/><polyline class="cls-45" points="441.01 480.79 427.03 564.69 361.86 564.69"/><polyline class="cls-45" points="336.07 425.95 319.67 477.23 142 477.23"/><polyline class="cls-45" points="290.51 229.25 254.5 199.06 2.74 199.06"/><polyline class="cls-45" points="387.15 118.33 362.89 79.7 174.24 79.7"/><polyline class="cls-45" points="446.23 99.59 452.41 48.83 624.25 49.52"/></svg>