<svg id="Layer_1" data-name="Layer 1" xmlns="http://www.w3.org/2000/svg" viewBox="0 0 901 602.26"><defs><style>.cls-1{fill:aqua;}.cls-2{fill:#ed1c24;}.cls-3{fill:blue;}.cls-4{fill:#e6e6e6;}.cls-5{fill:lime;}.cls-6{fill:#ff931e;}.cls-7{fill:#f0f;}.cls-8{fill:#ff0;}.cls-39,.cls-9{font-size:20.61px;}.cls-23,.cls-30,.cls-32,.cls-39,.cls-58,.cls-9{fill:#fff;}.cls-23,.cls-30,.cls-32,.cls-39,.cls-9{font-family:SegoeUI-Bold, Segoe UI;font-weight:700;}.cls-10{letter-spacing:0em;}.cls-11,.cls-39{letter-spacing:0em;}.cls-12{letter-spacing:0em;}.cls-13{letter-spacing:-0.01em;}.cls-14{letter-spacing:-0.01em;}.cls-15{letter-spacing:0.02em;}.cls-16{letter-spacing:-0.01em;}.cls-17{letter-spacing:-0.01em;}.cls-18{letter-spacing:0em;}.cls-19{letter-spacing:-0.02em;}.cls-20{letter-spacing:0.04em;}.cls-21{letter-spacing:0em;}.cls-22{letter-spacing:0.02em;}.cls-23,.cls-30,.cls-32{font-size:20.85px;}.cls-24,.cls-30{letter-spacing:0.01em;}.cls-25{letter-spacing:0em;}.cls-26{letter-spacing:0em;}.cls-27{letter-spacing:-0.01em;}.cls-28{letter-spacing:0em;}.cls-29{letter-spacing:0em;}.cls-31{letter-spacing:0em;}.cls-32,.cls-37{letter-spacing:0em;}.cls-33{letter-spacing:0em;}.cls-34{letter-spacing:0em;}.cls-35{letter-spacing:0em;}.cls-36{letter-spacing:-0.01em;}.cls-38{letter-spacing:0em;}.cls-40{letter-spacing:0em;}.cls-41{letter-spacing:-0.02em;}.cls-42{letter-spacing:0em;}.cls-43{letter-spacing:-0.03em;}.cls-44{letter-spacing:0em;}.cls-45{letter-spacing:0.04em;}.cls-46{letter-spacing:0em;}.cls-47{letter-spacing:0em;}.cls-48{letter-spacing:0em;}.cls-49{letter-spacing:0em;}.cls-50{letter-spacing:0.03em;}.cls-51{letter-spacing:0em;}.cls-52{letter-spacing:0em;}.cls-53{letter-spacing:-0.03em;}.cls-54{letter-spacing:0.01em;}.cls-55{letter-spacing:0.06em;}.cls-56{letter-spacing:-0.03em;}.cls-57{fill:none;stroke:#fff;stroke-miterlimit:10;fill-rule:evenodd;}</style></defs><path class="cls-1" d="M484.09,217.73A181.85,181.85,0,0,1,654.22,451.89L484.09,396.61V217.73m-4-4V399.52L656.83,457a186.05,186.05,0,0,0,9.09-57.43c0-102.63-83.2-185.83-185.83-185.83Z" transform="translate(-23.74 -119.37)"/><path class="cls-2" d="M502.86,411.13,651.73,459.5a181.59,181.59,0,0,1-22.23,43.64l-126.64-92m-22.78-11.61L630.42,508.75A185.82,185.82,0,0,0,656.81,457L480.08,399.52Z" transform="translate(-23.74 -119.37)"/><path class="cls-3" d="M484.08,407.37,624.79,509.61a181.84,181.84,0,0,1-140.71,71.7V407.37m-4-7.85V585.35a185.86,185.86,0,0,0,150.34-76.6L480.08,399.52Z" transform="translate(-23.74 -119.37)"/><path class="cls-4" d="M476.08,424.78V581.31a181.47,181.47,0,0,1-48.37-7.66l48.37-148.87m4-25.26L422.65,576.26a186.05,186.05,0,0,0,57.43,9.09V399.52Z" transform="translate(-23.74 -119.37)"/><path class="cls-5" d="M473.85,405.75,420.1,571.17A181.83,181.83,0,0,1,308.42,459.5l165.43-53.75m6.23-6.23L303.34,457A185.86,185.86,0,0,0,422.65,576.26l57.43-176.74Z" transform="translate(-23.74 -119.37)"/><path class="cls-6" d="M370,254.8,473.61,397.42,306,451.89A181.86,181.86,0,0,1,370,254.8m.86-5.62A185.84,185.84,0,0,0,303.34,457l176.74-57.43L370.85,249.18Z" transform="translate(-23.74 -119.37)"/><path class="cls-7" d="M420.1,227.87l48.37,148.87-92-126.64a181.23,181.23,0,0,1,43.64-22.23m2.55-5.08a185.69,185.69,0,0,0-51.8,26.39L480.08,399.52,422.65,222.79Z" transform="translate(-23.74 -119.37)"/><path class="cls-8" d="M476.08,217.73V374.27L427.71,225.39a181.47,181.47,0,0,1,48.37-7.66m4-4a185.77,185.77,0,0,0-57.43,9.1l57.43,176.73V213.69Z" transform="translate(-23.74 -119.37)"/><text class="cls-9" transform="translate(677.95 129.55)">L<tspan class="cls-10" x="10.54" y="0">i</tspan><tspan class="cls-11" x="16.43" y="0">s</tspan><tspan x="25.46" y="0">t</tspan><tspan class="cls-12" x="33.48" y="0"> </tspan><tspan class="cls-13" x="39.23" y="0">o</tspan><tspan class="cls-14" x="51.7" y="0">n</tspan><tspan class="cls-15" x="63.98" y="0"> </tspan><tspan class="cls-10" x="70" y="0">P</tspan><tspan class="cls-16" x="82.7" y="0">a</tspan><tspan class="cls-17" x="93.67" y="0">n</tspan><tspan class="cls-18" x="105.95" y="0">c</tspan><tspan class="cls-16" x="115.78" y="0">a</tspan><tspan class="cls-19" x="126.74" y="0">k</tspan><tspan class="cls-18" x="137.81" y="0">e</tspan><tspan class="cls-20" x="148.9" y="0"> </tspan><tspan class="cls-21" x="155.47" y="0">S</tspan><tspan class="cls-22" x="167.09" y="0">w</tspan><tspan class="cls-16" x="184.01" y="0">a</tspan><tspan x="194.98" y="0">p</tspan></text><text class="cls-23" transform="translate(828.7 163.23)"><tspan class="cls-24">30</tspan><tspan x="24.24" y="0">%</tspan></text><text class="cls-9" transform="translate(735.23 350.49)"><tspan class="cls-25">ID</tspan><tspan class="cls-26" x="21.64" y="0">O</tspan><tspan class="cls-12" x="37.19" y="0"> </tspan><tspan class="cls-27" x="42.94" y="0">W</tspan><tspan class="cls-14" x="63.38" y="0">h</tspan><tspan class="cls-10" x="75.6" y="0">i</tspan><tspan x="81.5" y="0">t</tspan><tspan class="cls-18" x="89.52" y="0">e</tspan><tspan class="cls-28" x="100.61" y="0">L</tspan><tspan class="cls-29" x="111.14" y="0">i</tspan><tspan class="cls-11" x="117.04" y="0">s</tspan><tspan class="cls-28" x="126.06" y="0">t</tspan></text><text class="cls-30" transform="translate(828.69 381.91)">5<tspan class="cls-31" x="12.12" y="0">%</tspan></text><text class="cls-32" transform="translate(601.42 459.59)">P<tspan class="cls-33" x="12.85" y="0">r</tspan><tspan class="cls-34" x="21.08" y="0">e</tspan></text><text class="cls-23" transform="translate(641.7 459.59)">-</text><text class="cls-23" transform="translate(656.15 459.59)"><tspan class="cls-35">s</tspan><tspan class="cls-36" x="9.13" y="0">a</tspan><tspan class="cls-37" x="20.22" y="0">l</tspan><tspan class="cls-38" x="26.19" y="0">e</tspan><tspan x="37.41" y="0"> </tspan></text><text class="cls-23" transform="translate(627.39 486.43)"><tspan class="cls-24">15</tspan><tspan x="24.24" y="0">%</tspan></text><text class="cls-39" transform="translate(328.89 571.11)">A<tspan class="cls-18" x="14.45" y="0">r</tspan><tspan class="cls-10" x="22.59" y="0">i</tspan><tspan class="cls-17" x="28.49" y="0">d</tspan><tspan class="cls-18" x="41.06" y="0">r</tspan><tspan class="cls-16" x="49.2" y="0">o</tspan><tspan class="cls-28" x="61.68" y="0">p</tspan></text><text class="cls-30" transform="translate(350.26 593.28)">5<tspan class="cls-31" x="12.12" y="0">%</tspan></text><text class="cls-23" transform="translate(188.74 407.83)"><tspan class="cls-40">S</tspan><tspan x="11.75" y="0">t</tspan><tspan class="cls-36" x="19.86" y="0">a</tspan><tspan class="cls-41" x="30.96" y="0">k</tspan><tspan x="42.15" y="0">e</tspan></text><text class="cls-23" transform="translate(193.73 439.25)"><tspan class="cls-24">15</tspan><tspan x="24.24" y="0">%</tspan></text><text class="cls-9" transform="translate(11.64 150.3)"><tspan class="cls-42">G</tspan><tspan class="cls-13" x="14.57" y="0">a</tspan><tspan class="cls-43" x="25.53" y="0">m</tspan><tspan class="cls-44" x="43.73" y="0">e</tspan><tspan class="cls-45" x="54.82" y="0"> </tspan><tspan class="cls-11" x="61.39" y="0">N</tspan><tspan class="cls-46" x="77.63" y="0">F</tspan><tspan class="cls-47" x="88.39" y="0">T</tspan><tspan class="cls-48" x="100.47" y="0"> </tspan><tspan class="cls-49" x="106.21" y="0">C</tspan><tspan class="cls-46" x="119.03" y="0">li</tspan><tspan class="cls-18" x="130.83" y="0">c</tspan><tspan class="cls-19" x="140.66" y="0">k</tspan><tspan class="cls-50" x="151.73" y="0"> </tspan><tspan x="158.01" y="0">T</tspan><tspan class="cls-16" x="170.09" y="0">o</tspan><tspan class="cls-12" x="182.56" y="0"> </tspan><tspan x="188.31" y="0">E</tspan><tspan class="cls-16" x="199.28" y="0">a</tspan><tspan class="cls-51" x="210.24" y="0">r</tspan><tspan class="cls-52" x="218.38" y="0">n</tspan></text><text class="cls-23" transform="translate(103.52 179.74)"><tspan class="cls-24">20</tspan><tspan x="24.23" y="0">%</tspan></text><text class="cls-9" transform="translate(164.4 47.75)"><tspan class="cls-25">D</tspan><tspan class="cls-18" x="15.15" y="0">e</tspan><tspan class="cls-16" x="26.24" y="0">v</tspan><tspan class="cls-18" x="37.29" y="0">e</tspan><tspan class="cls-10" x="48.38" y="0">l</tspan><tspan class="cls-13" x="54.27" y="0">o</tspan><tspan class="cls-17" x="66.75" y="0">p</tspan><tspan class="cls-53" x="79.34" y="0">m</tspan><tspan class="cls-54" x="97.54" y="0">e</tspan><tspan class="cls-17" x="108.88" y="0">n</tspan><tspan x="121.16" y="0">t</tspan><tspan class="cls-55" x="129.18" y="0"> </tspan><tspan class="cls-52" x="136.02" y="0">T</tspan><tspan class="cls-18" x="148.09" y="0">e</tspan><tspan class="cls-16" x="159.18" y="0">a</tspan><tspan class="cls-56" x="170.15" y="0">m</tspan><tspan x="188.34" y="0"> </tspan></text><text class="cls-30" transform="translate(240.51 69.91)">5<tspan class="cls-31" x="12.12" y="0">%</tspan></text><text class="cls-9" transform="translate(487.63 17.52)"><tspan class="cls-15">M</tspan><tspan class="cls-16" x="20.05" y="0">a</tspan><tspan class="cls-18" x="31.02" y="0">r</tspan><tspan class="cls-19" x="39.16" y="0">k</tspan><tspan class="cls-18" x="50.23" y="0">e</tspan><tspan x="61.31" y="0">t</tspan><tspan class="cls-10" x="69.33" y="0">i</tspan><tspan class="cls-17" x="75.23" y="0">n</tspan><tspan x="87.51" y="0">g</tspan></text><text class="cls-30" transform="translate(552.94 40.35)">5<tspan class="cls-31" x="12.12" y="0">%</tspan></text><polyline class="cls-57" points="898.36 172.98 652.45 172.98 623.03 201.74"/><circle class="cls-58" cx="898.36" cy="173.64" r="2.64"/><circle class="cls-58" cx="651.79" cy="173.64" r="2.64"/><circle class="cls-58" cx="651.79" cy="392.45" r="2.64"/><circle class="cls-58" cx="886.46" cy="392.45" r="2.64"/><circle class="cls-58" cx="737.72" cy="502.84" r="2.64"/><circle class="cls-58" cx="350.35" cy="543.83" r="2.64"/><circle class="cls-58" cx="307.38" cy="459.88" r="2.64"/><circle class="cls-58" cx="136.84" cy="459.88" r="2.64"/><circle class="cls-58" cx="2.64" cy="191.49" r="2.64"/><circle class="cls-58" cx="244.59" cy="191.49" r="2.64"/><circle class="cls-58" cx="349.69" cy="77.13" r="2.64"/><circle class="cls-58" cx="436.29" cy="48.05" r="2.64"/><circle class="cls-58" cx="600.23" cy="48.05" r="2.64"/><circle class="cls-58" cx="167.24" cy="76.47" r="2.64"/><circle class="cls-58" cx="411.17" cy="543.83" r="2.64"/><circle class="cls-58" cx="577.09" cy="502.84" r="2.64"/><polyline class="cls-57" points="621.06 366.15 651.79 392.45 886.46 392.45"/><polyline class="cls-57" points="737.72 502.84 577.09 502.84 531.5 450.1"/><polyline class="cls-57" points="424.98 463.31 411.5 544.16 348.7 544.16"/><polyline class="cls-57" points="323.85 410.46 308.05 459.88 136.84 459.88"/><polyline class="cls-57" points="279.95 220.91 245.25 191.82 2.64 191.82"/><polyline class="cls-57" points="373.07 114.03 349.69 76.8 167.91 76.8"/><polyline class="cls-57" points="430.01 95.97 435.96 47.05 601.55 47.72"/></svg>